<svg width="455" height="455" viewBox="0 0 455 455" fill="none" xmlns="http://www.w3.org/2000/svg">
<path fill-rule="evenodd" clip-rule="evenodd" d="M455 227.5C455 353.145 353.145 455 227.5 455C200.411 455 174.428 450.265 150.333 441.579V294.569C179.182 319.992 217.055 335.414 258.53 335.414C348.949 335.414 422.248 262.115 422.248 171.696C422.248 113.097 391.462 61.6882 345.181 32.7624C411.007 72.6269 455 144.926 455 227.5ZM148.909 293.3V441.06C61.9922 409.064 0 325.522 0 227.5C0 101.855 101.855 0 227.5 0C264.71 0 299.833 8.9331 330.842 24.7717C309.035 14.0186 284.488 7.97742 258.53 7.97742C168.11 7.97742 94.811 81.2767 94.811 171.696C94.811 219.954 115.691 263.336 148.909 293.3Z" fill="url(#paint0_linear_698_986)"/>
<path fill-rule="evenodd" clip-rule="evenodd" d="M227.5 455C353.145 455 455 353.145 455 227.5C455 144.926 411.007 72.6269 345.181 32.7624C391.462 61.6882 422.248 113.097 422.248 171.696C422.248 262.115 348.949 335.414 258.53 335.414C168.11 335.414 94.811 262.115 94.811 171.696C94.811 81.2767 168.11 7.97742 258.53 7.97742C284.488 7.97742 309.035 14.0186 330.842 24.7717C299.833 8.9331 264.71 0 227.5 0C101.855 0 0 101.855 0 227.5C0 353.145 101.855 455 227.5 455Z" fill="url(#paint1_linear_698_986)"/>
<path opacity="0.8" fill-rule="evenodd" clip-rule="evenodd" d="M52.7215 300.967C41.3262 275.066 35 246.428 35 216.311C35 100.159 129.099 6 245.177 6C256.343 6 267.305 6.87127 278 8.54957C271.674 7.80745 265.238 7.42583 258.713 7.42583C168.212 7.42583 94.8468 80.8383 94.8468 171.397C94.8468 193.869 99.3643 215.284 107.54 234.784L55.6614 304L52.7215 300.967Z" fill="url(#paint2_linear_698_986)"/>
<path fill-rule="evenodd" clip-rule="evenodd" d="M55.1002 306.466C42.1115 279.115 34.8417 248.505 34.8417 216.193C34.8417 100.583 127.906 6.77212 243 6.00472C242.527 6.00157 242.054 6 241.581 6C125.833 6 32 100.107 32 216.193C32 249.507 39.7275 281.011 53.483 309L55.1002 306.466Z" fill="url(#paint3_linear_698_986)"/>
<path fill-rule="evenodd" clip-rule="evenodd" d="M240.011 419C353.776 419 446 326.507 446 212.41C446 150.453 418.805 94.8655 375.733 57C404.277 86.5006 421.85 126.738 421.85 171.092C421.85 261.582 348.706 334.939 258.479 334.939C234.561 334.939 211.844 329.784 191.371 320.522L183.753 347.61L174.519 391.065L173 407.822C194.008 415.067 216.552 419 240.011 419Z" fill="url(#paint4_linear_698_986)"/>
<path fill-rule="evenodd" clip-rule="evenodd" d="M197.114 323C199.058 323.784 201.02 324.533 203 325.245C192.023 360.024 186.105 397.03 186.105 435.411C186.105 436.608 186.111 437.805 186.122 439C185.379 429.986 185 420.869 185 411.665C185 380.949 189.22 351.214 197.114 323Z" fill="#161616"/>
<path fill-rule="evenodd" clip-rule="evenodd" d="M42 335C57.3062 296.138 79.3474 260.66 106.688 230C107.726 232.64 108.831 235.247 110 237.818C82.6232 266.367 59.6012 299.116 42 335Z" fill="#161616"/>
<path fill-rule="evenodd" clip-rule="evenodd" d="M184.802 410.953C184.802 355.468 198.634 303.208 223.043 257.42L223.043 257.42C231.185 242.147 240.505 227.593 250.88 213.881C267.498 192.588 284.813 181.69 290.79 178.908C300.716 174.288 302.604 181.662 302.308 185.927C308.043 179.589 317.684 164.465 310.361 154.668C301.92 143.376 281.663 149.28 272.84 151.852C272.501 151.951 272.179 152.045 271.876 152.132C266.022 150.168 259.755 149.104 253.238 149.104C247.74 149.104 242.419 149.862 237.374 151.278C211.48 156.938 186.701 166.829 164.036 180.551L154.864 186.104L177.165 182.533C115.015 222.925 65.299 280.777 35 349.12C68.6041 401.766 123.313 439.684 187.232 451C185.628 437.875 184.802 424.51 184.802 410.953Z" fill="url(#paint5_linear_698_986)"/>
<path fill-rule="evenodd" clip-rule="evenodd" d="M285 182C201.777 239.013 138.57 322.853 108 420.967C131.894 435.582 158.698 445.946 187.347 451C185.738 437.883 184.91 424.527 184.91 410.978C184.91 355.529 198.781 303.302 223.261 257.544L223.261 257.544C231.427 242.279 240.774 227.734 251.18 214.029C263.8 197.918 276.819 187.762 285 182.573V182Z" fill="url(#paint6_linear_698_986)"/>
<path fill-rule="evenodd" clip-rule="evenodd" d="M105 419.245C137.011 320.219 202.408 236.095 288 180C203.199 236.955 138.759 321.648 107.822 421C106.877 420.422 105.936 419.836 105 419.245Z" fill="url(#paint7_linear_698_986)"/>
<path fill-rule="evenodd" clip-rule="evenodd" d="M187 412.111C203.905 416.605 221.663 419 239.979 419C353.761 419 446 326.576 446 212.566C446 178.884 437.95 147.087 423.672 119C437.062 146.381 444.579 177.168 444.579 209.715C444.579 323.726 352.34 416.15 238.557 416.15C220.934 416.15 203.828 413.932 187.501 409.761L187 412.111Z" fill="url(#paint8_linear_698_986)"/>
<path d="M250.001 155.522C244.768 155.041 238.013 158.156 235.29 159.774C239.945 159.689 244.773 161.091 250.427 163.149C254.951 164.796 262.272 160.582 265.367 158.269C262.425 157.554 255.233 156.004 250.001 155.522Z" fill="#161616"/>
<defs>
<linearGradient id="paint0_linear_698_986" x1="149.289" y1="-19.706" x2="84.9825" y2="327.609" gradientUnits="userSpaceOnUse">
<stop stop-color="#BC9516"/>
<stop offset="1" stop-color="#EAD469"/>
</linearGradient>
<linearGradient id="paint1_linear_698_986" x1="149.289" y1="-19.706" x2="84.9825" y2="327.609" gradientUnits="userSpaceOnUse">
<stop stop-color="#BC9516"/>
<stop offset="1" stop-color="#EAD469"/>
</linearGradient>
<linearGradient id="paint2_linear_698_986" x1="124.382" y1="13.5915" x2="76.0953" y2="136.087" gradientUnits="userSpaceOnUse">
<stop stop-color="#94660A"/>
<stop offset="1" stop-color="#94660A" stop-opacity="0.4"/>
</linearGradient>
<linearGradient id="paint3_linear_698_986" x1="137.5" y1="6" x2="137.5" y2="309" gradientUnits="userSpaceOnUse">
<stop stop-color="#F8E870"/>
<stop offset="1" stop-color="#F8E870" stop-opacity="0"/>
</linearGradient>
<linearGradient id="paint4_linear_698_986" x1="353.895" y1="45.7105" x2="148.307" y2="359.003" gradientUnits="userSpaceOnUse">
<stop stop-color="#94660A"/>
<stop offset="1" stop-color="#94660A" stop-opacity="0.3"/>
</linearGradient>
<linearGradient id="paint5_linear_698_986" x1="149.271" y1="149.567" x2="165.599" y2="451.296" gradientUnits="userSpaceOnUse">
<stop stop-color="#BB9426"/>
<stop offset="1" stop-color="#FEF187"/>
</linearGradient>
<linearGradient id="paint6_linear_698_986" x1="301.175" y1="163.801" x2="188.418" y2="431.229" gradientUnits="userSpaceOnUse">
<stop stop-color="#94660A"/>
<stop offset="1" stop-color="#94660A" stop-opacity="0.46"/>
</linearGradient>
<linearGradient id="paint7_linear_698_986" x1="171.502" y1="170.652" x2="95.5351" y2="257.226" gradientUnits="userSpaceOnUse">
<stop stop-color="#F8E870"/>
<stop offset="1" stop-color="#F8E870" stop-opacity="0"/>
</linearGradient>
<linearGradient id="paint8_linear_698_986" x1="439.606" y1="157.036" x2="28.2871" y2="509.296" gradientUnits="userSpaceOnUse">
<stop stop-color="#F8E870"/>
<stop offset="1" stop-color="#F8E870" stop-opacity="0"/>
</linearGradient>
</defs>
</svg>
