<svg width="158" height="40" viewBox="0 0 158 40" fill="none" xmlns="http://www.w3.org/2000/svg">
<path d="M152.332 28.7147C149.774 28.7147 147.885 27.657 146.838 25.7339L149.348 23.9839C150.036 25.0801 151.034 25.5801 152.38 25.5801C153.853 25.5801 154.841 24.9839 154.841 24.157C154.841 23.0224 152.971 22.1282 151.334 21.3205C149.58 20.4551 147.652 19.5032 147.652 17.032C147.652 14.3493 149.939 12.5801 152.807 12.5801C154.938 12.5801 156.702 13.4551 157.409 15.3301L155.093 16.9358C154.628 16.0128 153.727 15.6378 152.855 15.6378C151.683 15.6378 150.811 16.3108 150.811 17.1089C150.811 18.032 151.993 18.3493 153.785 19.1858C156.372 20.3974 158 21.7051 158 24.0897C158 26.9166 155.675 28.7147 152.332 28.7147Z" fill="#D6B635"/>
<path d="M138.1 28.7147C135.543 28.7147 133.653 27.657 132.607 25.7339L135.116 23.9839C135.804 25.0801 136.802 25.5801 138.149 25.5801C139.622 25.5801 140.61 24.9839 140.61 24.157C140.61 23.0224 138.74 22.1282 137.102 21.3205C135.349 20.4551 133.421 19.5032 133.421 17.032C133.421 14.3493 135.707 12.5801 138.575 12.5801C140.707 12.5801 142.47 13.4551 143.178 15.3301L140.862 16.9358C140.397 16.0128 139.496 15.6378 138.624 15.6378C137.451 15.6378 136.579 16.3108 136.579 17.1089C136.579 18.032 137.761 18.3493 139.554 19.1858C142.141 20.3974 143.769 21.7051 143.769 24.0897C143.769 26.9166 141.443 28.7147 138.1 28.7147Z" fill="#D6B635"/>
<path d="M129.13 15.9745H122.852V19.0034H128.239V22.1091H122.852V25.3111H129.13V28.4072H119.712V12.9072H129.13V15.9745Z" fill="#D6B635"/>
<path d="M111.866 12.8682H115.015V28.6951H114.87L105.597 19.7432V28.4259H102.458V12.6182H102.613L111.866 21.5509V12.8682Z" fill="#D6B635"/>
<path d="M98.1672 15.9745H91.8886V19.0034H97.2758V22.1091H91.8886V25.3111H98.1672V28.4072H88.7493V12.9072H98.1672V15.9745Z" fill="#D6B635"/>
<path d="M80.9031 12.8682H84.0521V28.6951H83.9068L74.6342 19.7432V28.4259H71.4949V12.6182H71.6499L80.9031 21.5509V12.8682Z" fill="#D6B635"/>
<path d="M59.3272 28.7052C54.8701 28.7052 51.2173 25.0898 51.2173 20.6764C51.2173 16.2245 54.8701 12.5898 59.3368 12.5898C63.8036 12.5898 67.4661 16.2245 67.4661 20.6764C67.4661 25.0898 63.8036 28.7052 59.3272 28.7052ZM59.3272 25.5514C62.0595 25.5514 64.288 23.3495 64.288 20.6572C64.288 17.9456 62.0595 15.7341 59.3272 15.7341C56.6045 15.7341 54.3857 17.9456 54.3857 20.6572C54.3857 23.3495 56.6045 25.5514 59.3272 25.5514Z" fill="#D6B635"/>
<path fill-rule="evenodd" clip-rule="evenodd" d="M40.3071 20C40.3071 31.0457 31.2841 40 20.1536 40C18.9444 40 17.7602 39.8943 16.6097 39.6918L16.61 39.6945C10.956 38.6993 6.11673 35.3647 3.14422 30.7347L3.14494 30.7331C1.15371 27.632 0 23.9497 0 20C0 8.9543 9.02306 0 20.1536 0C23.4519 0 26.5653 0.786331 29.3136 2.1804C27.3804 1.23346 25.204 0.701405 22.9024 0.701405C15.6433 0.701405 9.62987 5.9937 8.56614 12.9024C8.53197 13.1243 8.50291 13.3479 8.47907 13.5731C8.42618 14.0729 8.39907 14.5803 8.39907 15.094C8.39907 16.9618 8.75761 18.7465 9.41011 20.3841C7.08397 23.0323 5.20567 26.0839 3.89359 29.4204C5.43195 26.2792 7.44408 23.4124 9.83681 20.9133C9.83478 20.9088 9.83276 20.9043 9.83073 20.8999C11.6034 19.0846 13.5798 17.4665 15.7234 16.0819L13.7468 16.3965L14.5537 15.9108C16.5633 14.7012 18.7583 13.8301 21.051 13.3325C21.4956 13.2089 21.9643 13.1428 22.4487 13.1428C23.0254 13.1428 23.5801 13.2365 24.0982 13.4094L24.1825 13.3851L24.1826 13.3851C24.963 13.1589 26.7549 12.6396 27.5015 13.6328C28.1493 14.4943 27.2965 15.8244 26.7892 16.3818C26.8154 16.0068 26.6483 15.3583 25.7704 15.7645C25.2443 16.008 23.7256 16.9579 22.2624 18.8118C20.1068 21.6369 18.4644 24.869 17.473 28.3715L17.4537 28.3638C16.7638 30.8245 16.3951 33.4179 16.3951 36.0968C16.3951 36.8996 16.4282 37.6948 16.4932 38.4809C16.4922 38.3767 16.4916 38.2724 16.4916 38.1679C16.4916 34.8446 17.0014 31.6394 17.9474 28.6252C19.4935 29.1829 21.1621 29.4871 22.9024 29.4871C30.9124 29.4871 37.4057 23.0432 37.4057 15.0942C37.4057 9.94066 34.6763 5.41971 30.5738 2.87733C36.4078 6.3813 40.3071 12.7388 40.3071 20ZM22.1585 13.69C21.6953 13.6477 21.0973 13.9214 20.8562 14.0635C21.2683 14.0561 21.6957 14.1793 22.1963 14.3601C22.5968 14.5047 23.2449 14.1346 23.5189 13.9314C23.2584 13.8685 22.6218 13.7323 22.1585 13.69Z" fill="#D6B635"/>
</svg>
