<svg width="710" height="94" viewBox="0 0 710 94" fill="none" xmlns="http://www.w3.org/2000/svg">
<mask id="mask0_633_612" style="mask-type:alpha" maskUnits="userSpaceOnUse" x="1" y="3" width="93" height="87">
<path fill-rule="evenodd" clip-rule="evenodd" d="M47.9306 7.83681C24.8248 7.83681 6.09393 25.2729 6.09393 46.7814C6.09393 68.2898 24.8249 85.7259 47.9306 85.7259C71.0364 85.7259 89.7673 68.2898 89.7673 46.7814C89.7673 25.2729 71.0364 7.83681 47.9306 7.83681ZM47.9306 3.8967C22.4872 3.8967 1.86122 23.0968 1.86122 46.7814C1.86122 70.4659 22.4872 89.666 47.9306 89.666C73.374 89.666 94 70.4659 94 46.7814C94 23.0968 73.374 3.8967 47.9306 3.8967Z" fill="url(#paint0_linear_633_612)"/>
</mask>
<g mask="url(#mask0_633_612)">
<path d="M114.01 91.3984L49.3267 91.3984L49.3267 -9.5321L114.01 -9.5321L114.01 91.3984Z" fill="#D9D9D9"/>
</g>
<path fill-rule="evenodd" clip-rule="evenodd" d="M46.9995 62.6407C56.6641 62.6407 64.4988 55.3476 64.4988 46.3512C64.4988 37.3547 56.6641 30.0616 46.9995 30.0616C37.3349 30.0616 29.5002 37.3547 29.5002 46.3512C29.5002 55.3476 37.3349 62.6407 46.9995 62.6407ZM46.9995 67.1437C59.3357 67.1437 69.3362 57.8346 69.3362 46.3512C69.3362 34.8677 59.3357 25.5586 46.9995 25.5586C34.6633 25.5586 24.6628 34.8677 24.6628 46.3512C24.6628 57.8346 34.6633 67.1437 46.9995 67.1437Z" fill="url(#paint1_linear_633_612)"/>
<path d="M53.049 49.9039C53.049 50.7277 52.8371 51.504 52.4134 52.2327C52.0054 52.9456 51.3934 53.5396 50.5774 54.0149C49.7771 54.4743 48.8277 54.7436 47.7292 54.8228V56.7476H46.2227V54.7991C44.6534 54.6565 43.3902 54.1812 42.4329 53.3733C41.4757 52.5495 40.9813 51.4406 40.95 50.0465H44.4808C44.575 51.1871 45.1556 51.8762 46.2227 52.1139V47.5752C45.0928 47.29 44.1826 47.0048 43.4922 46.7197C42.8017 46.4345 42.2054 45.9751 41.7032 45.3414C41.201 44.7078 40.95 43.8444 40.95 42.7513C40.95 41.373 41.4364 40.2482 42.4094 39.3769C43.398 38.5056 44.6691 38.0066 46.2227 37.8799V35.9551H47.7292V37.8799C49.2357 38.0066 50.4362 38.466 51.3306 39.2581C52.2408 40.0502 52.7508 41.1433 52.8607 42.5374H49.3063C49.2592 42.078 49.0944 41.6819 48.812 41.3493C48.5452 41.0007 48.1843 40.7552 47.7292 40.6126V45.1038C48.9061 45.4048 49.832 45.6979 50.5068 45.983C51.1972 46.2523 51.7936 46.7038 52.2957 47.3375C52.7979 47.9554 53.049 48.8108 53.049 49.9039ZM44.3866 42.5849C44.3866 43.1077 44.5436 43.5355 44.8574 43.8681C45.1713 44.185 45.6264 44.4464 46.2227 44.6523V40.5413C45.6577 40.6205 45.2105 40.8344 44.881 41.1829C44.5514 41.5314 44.3866 41.9988 44.3866 42.5849ZM47.7292 52.1614C48.3255 52.0505 48.7884 51.805 49.118 51.4247C49.4632 51.0445 49.6358 50.5851 49.6358 50.0465C49.6358 49.5237 49.4711 49.1039 49.1415 48.7871C48.812 48.4702 48.3412 48.2088 47.7292 48.0029V52.1614Z" fill="#D6B635"/>
<path fill-rule="evenodd" clip-rule="evenodd" d="M46.0693 90.6227C47.4066 90.6227 48.4908 89.6135 48.4908 88.3686C48.4908 87.1237 47.4066 86.1145 46.0693 86.1145C44.7319 86.1145 43.6478 87.1237 43.6478 88.3686C43.6478 89.6135 44.7319 90.6227 46.0693 90.6227ZM46.0693 93.9999C49.4103 93.9999 52.1188 91.4787 52.1188 88.3686C52.1188 85.2585 49.4103 82.7373 46.0693 82.7373C42.7282 82.7373 40.0198 85.2585 40.0198 88.3686C40.0198 91.4787 42.7282 93.9999 46.0693 93.9999Z" fill="white"/>
<mask id="mask1_633_612" style="mask-type:alpha" maskUnits="userSpaceOnUse" x="0" y="3" width="93" height="87">
<path fill-rule="evenodd" clip-rule="evenodd" d="M46.0694 86.6365C69.7138 86.6365 88.8813 68.7939 88.8813 46.7841C88.8813 24.7742 69.7138 6.93166 46.0694 6.93166C22.425 6.93166 3.25743 24.7742 3.25743 46.7841C3.25743 68.7939 22.425 86.6365 46.0694 86.6365ZM46.0694 89.6687C71.5128 89.6687 92.1388 70.4686 92.1388 46.7841C92.1388 23.0995 71.5128 3.89941 46.0694 3.89941C20.626 3.89941 0 23.0995 0 46.7841C0 70.4686 20.626 89.6687 46.0694 89.6687Z" fill="url(#paint2_linear_633_612)"/>
</mask>
<g mask="url(#mask1_633_612)">
<path d="M-21.4065 2.16699H43.2768V103.098H-21.4065V2.16699Z" fill="#D9D9D9"/>
</g>
<path fill-rule="evenodd" clip-rule="evenodd" d="M46.9996 7.8854C48.3369 7.8854 49.421 6.87621 49.421 5.63132C49.421 4.38642 48.3369 3.37723 46.9996 3.37723C45.6622 3.37723 44.5781 4.38642 44.5781 5.63132C44.5781 6.87621 45.6622 7.8854 46.9996 7.8854ZM46.9996 11.2626C50.3406 11.2626 53.0491 8.74141 53.0491 5.63132C53.0491 2.52123 50.3406 0 46.9996 0C43.6585 0 40.95 2.52123 40.95 5.63132C40.95 8.74141 43.6585 11.2626 46.9996 11.2626Z" fill="white"/>
<path d="M170 73L166.562 65.3438H142.719L139.281 73H130.719L154.406 21.5938H154.875L178.562 73H170ZM145.781 58.5625H163.5L154.656 38.875L145.781 58.5625ZM232.906 21.5312H233.5V73H225.594V45.0625L208.875 72.1562H208.812L192.062 45.0312V73H184.156V21.5312H184.75L208.844 58.1562L232.906 21.5312ZM243.219 73V22.625H260.062C269.812 22.625 277.781 30.0938 277.781 39.25C277.781 48.2188 269.812 55.5312 260.062 55.5312H251.125V73H243.219ZM260.062 47.7188C265.469 47.75 269.875 43.9062 269.875 39.1875C269.875 34.375 265.469 30.4688 260.062 30.4688H251.125V47.6875L260.062 47.7188ZM292 65.125H314.469V73H284.094V22.625H292V65.125ZM350.781 30.4062H328.688V43.3125H347.75V51.1875H328.688V65.125H350.781V73H320.781V22.625H350.781V30.4062ZM385.688 65.125H408.156V73H377.781V22.625H385.688V65.125ZM414.469 73V22.625H422.375V73H414.469ZM481.781 47.875C481.781 55 478.844 61.4688 474.125 66.1875C476.156 67 478.469 67.5312 481.281 67.6562L480.469 75.375C474.938 75.125 470.875 73.3125 467.625 70.9062C464.031 72.7812 459.969 73.8125 455.688 73.8125C441.375 73.8125 429.688 62.125 429.688 47.875C429.688 33.5 441.375 21.75 455.719 21.75C470.031 21.75 481.781 33.5 481.781 47.875ZM437.656 47.8125C437.656 57.7188 445.75 65.8125 455.688 65.8125C457.656 65.8125 459.562 65.5 461.344 64.9062C457.312 60.3438 453.938 55.9375 448.25 55.6562L448.781 48.8438C458.531 49.375 461.906 56.25 467.344 61.5625C471.281 58.25 473.781 53.3125 473.781 47.8125C473.781 37.8438 465.625 29.7188 455.688 29.7188C445.75 29.7188 437.656 37.8438 437.656 47.8125ZM507.594 73.9375C496.875 73.9375 488.562 65.4688 488.562 53.9062V22.625H496.5V53.875C496.5 60.8438 501.406 65.9375 507.562 65.9375C513.719 65.9375 518.688 60.8438 518.688 53.875V22.625H526.656V53.9062C526.656 65.4688 518.312 73.9375 507.594 73.9375ZM535.844 73V22.625H543.75V73H535.844ZM567.812 22.625C583.812 22.5938 593.781 32.2812 593.781 47.875C593.781 63.3438 583.812 73 567.812 73H553.469V22.625H567.812ZM567.875 65.125C578.875 65.125 585.781 58.4688 585.781 47.8438C585.781 37.1562 578.844 30.4688 567.781 30.4688H561.344V65.125H567.875ZM601.031 73V22.625H608.938V73H601.031ZM650.219 22.625V30.4688H636.719V73H628.781V30.4688H615.281V22.625H650.219ZM669.125 73V51.4688L652.406 22.625H661.312L673.031 42.6875L684.781 22.625H693.688L676.969 51.4688V73H669.125Z" fill="white"/>
<defs>
<linearGradient id="paint0_linear_633_612" x1="47.9306" y1="89.666" x2="47.9306" y2="3.8967" gradientUnits="userSpaceOnUse">
<stop stop-color="#C38B8B"/>
<stop offset="0.97" stop-color="white" stop-opacity="0"/>
</linearGradient>
<linearGradient id="paint1_linear_633_612" x1="46.9995" y1="25.5586" x2="45.1057" y2="75.9689" gradientUnits="userSpaceOnUse">
<stop stop-color="#D6B635"/>
<stop offset="0.28981" stop-color="#A38D40" stop-opacity="0.71019"/>
<stop offset="0.519901" stop-color="#7A6C49" stop-opacity="0.480099"/>
<stop offset="1" stop-opacity="0"/>
</linearGradient>
<linearGradient id="paint2_linear_633_612" x1="46.0694" y1="3.89941" x2="46.0694" y2="89.6687" gradientUnits="userSpaceOnUse">
<stop stop-color="white"/>
<stop offset="0.97" stop-color="white" stop-opacity="0"/>
</linearGradient>
</defs>
</svg>
