<svg width="864" height="94" viewBox="0 0 864 94" fill="none" xmlns="http://www.w3.org/2000/svg">
<path fill-rule="evenodd" clip-rule="evenodd" d="M58.8334 46.9999L47 35.1665L35.1666 46.9999L47 58.8333L58.8334 46.9999ZM49.8379 32.3286C48.2706 30.7613 45.7294 30.7613 44.1621 32.3286L32.3287 44.162C30.7614 45.7293 30.7614 48.2705 32.3287 49.8378L44.1621 61.6712C45.7294 63.2385 48.2706 63.2385 49.8379 61.6712L61.6713 49.8378C63.2386 48.2705 63.2386 45.7293 61.6713 44.162L49.8379 32.3286Z" fill="#D6B635"/>
<path d="M44.1504 44.1507C45.7177 42.5833 48.2823 42.5833 49.8496 44.1507C51.417 45.718 51.417 48.2826 49.8496 49.8499C48.2823 51.4172 45.7177 51.4172 44.1504 49.8499C42.583 48.2826 42.583 45.718 44.1504 44.1507Z" fill="#D6B635"/>
<path fill-rule="evenodd" clip-rule="evenodd" d="M69.6531 46.2906L61.2733 37.9108C60.8815 37.519 60.2462 37.519 59.8544 37.9108L51.4746 46.2906C51.0827 46.6824 51.0827 47.3177 51.4746 47.7096L59.8544 56.0893C60.2462 56.4812 60.8815 56.4812 61.2733 56.0894L69.6531 47.7096C70.0449 47.3177 70.0449 46.6824 69.6531 46.2906ZM63.4017 35.7824C61.8344 34.2151 59.2933 34.2151 57.7259 35.7824L49.3461 44.1622C47.7788 45.7295 47.7788 48.2706 49.3461 49.838L57.7259 58.2178C59.2933 59.7851 61.8344 59.7851 63.4017 58.2178L71.7815 49.838C73.3489 48.2706 73.3489 45.7295 71.7815 44.1622L63.4017 35.7824Z" fill="url(#paint0_linear_633_610)"/>
<path fill-rule="evenodd" clip-rule="evenodd" d="M41.6488 46.2906L33.269 37.9108C32.8772 37.519 32.2419 37.519 31.8501 37.9108L23.4703 46.2906C23.0785 46.6824 23.0785 47.3177 23.4703 47.7096L31.8501 56.0893C32.2419 56.4812 32.8772 56.4812 33.269 56.0894L41.6488 47.7096C42.0407 47.3177 42.0407 46.6824 41.6488 46.2906ZM35.3975 35.7824C33.8301 34.2151 31.289 34.2151 29.7217 35.7824L21.3419 44.1622C19.7745 45.7295 19.7745 48.2706 21.3419 49.838L29.7217 58.2178C31.289 59.7851 33.8301 59.7851 35.3975 58.2178L43.7773 49.838C45.3446 48.2706 45.3446 45.7295 43.7773 44.1622L35.3975 35.7824Z" fill="url(#paint1_linear_633_610)"/>
<path fill-rule="evenodd" clip-rule="evenodd" d="M90.3413 46.6453L47.3547 3.65866C47.1588 3.46274 46.8412 3.46274 46.6453 3.65866L3.65866 46.6453C3.46274 46.8412 3.46274 47.1588 3.65866 47.3547L46.6453 90.3413C46.8412 90.5373 47.1588 90.5373 47.3547 90.3413L90.3413 47.3547C90.5373 47.1588 90.5373 46.8412 90.3413 46.6453ZM49.8379 1.1755C48.2706 -0.391832 45.7294 -0.391832 44.1621 1.1755L1.1755 44.1621C-0.391831 45.7294 -0.391833 48.2706 1.1755 49.8379L44.1621 92.8245C45.7294 94.3918 48.2706 94.3918 49.8379 92.8245L92.8245 49.8379C94.3918 48.2706 94.3918 45.7294 92.8245 44.1621L49.8379 1.1755Z" fill="url(#paint2_linear_633_610)"/>
<path d="M169 74L165.562 66.3438H141.719L138.281 74H129.719L153.406 22.5938H153.875L177.562 74H169ZM144.781 59.5625H162.5L153.656 39.875L144.781 59.5625ZM197.5 23.625C213.5 23.5938 223.469 33.2812 223.469 48.875C223.469 64.3438 213.5 74 197.5 74H183.156V23.625H197.5ZM197.562 66.125C208.562 66.125 215.469 59.4688 215.469 48.8438C215.469 38.1562 208.531 31.4688 197.469 31.4688H191.031V66.125H197.562ZM261.25 74L257.812 66.3438H233.969L230.531 74H221.969L245.656 22.5938H246.125L269.812 74H261.25ZM237.031 59.5625H254.75L245.906 39.875L237.031 59.5625ZM275.406 74V23.625H292.25C302 23.625 309.969 31.0938 309.969 40.25C309.969 49.2188 302 56.5312 292.25 56.5312H283.312V74H275.406ZM292.25 48.7188C297.656 48.75 302.062 44.9062 302.062 40.1875C302.062 35.375 297.656 31.4688 292.25 31.4688H283.312V48.6875L292.25 48.7188ZM347.844 23.625V31.4688H334.344V74H326.406V31.4688H312.906V23.625H347.844ZM384.156 31.4062H362.062V44.3125H381.125V52.1875H362.062V66.125H384.156V74H354.156V23.625H384.156V31.4062ZM429.812 74H420.094L406.531 54.5H400.344V74H392.438L392.406 23.625H408.062C417.438 23.625 425.125 30.8438 425.125 39.8125C425.125 46.3125 420.938 51.9688 415.156 53.8438L429.812 74ZM400.312 47.9375H408.25C413 47.9688 416.969 44.125 416.969 39.625C416.969 34.9375 412.938 31.4688 408.25 31.4688H400.312V47.9375Z" fill="white"/>
<defs>
<linearGradient id="paint0_linear_633_610" x1="85.937" y1="8.06272" x2="29.4979" y2="64.5018" gradientUnits="userSpaceOnUse">
<stop stop-color="#D6B635"/>
<stop offset="1" stop-color="#FFE199" stop-opacity="0"/>
</linearGradient>
<linearGradient id="paint1_linear_633_610" x1="6.59677" y1="87.4029" x2="61.5699" y2="32.4298" gradientUnits="userSpaceOnUse">
<stop stop-color="#D8BB47"/>
<stop offset="1" stop-color="#FFE199" stop-opacity="0"/>
</linearGradient>
<linearGradient id="paint2_linear_633_610" x1="22.6687" y1="-1.66259" x2="22.6687" y2="90.8398" gradientUnits="userSpaceOnUse">
<stop stop-color="white"/>
<stop offset="1" stop-color="#8F8F8F" stop-opacity="0"/>
</linearGradient>
</defs>
</svg>
