<svg width="1506" height="94" viewBox="0 0 1506 94" fill="none" xmlns="http://www.w3.org/2000/svg">
<path fill-rule="evenodd" clip-rule="evenodd" d="M58.8334 46.9999L47 35.1665L35.1666 46.9999L47 58.8333L58.8334 46.9999ZM49.8379 32.3286C48.2706 30.7613 45.7294 30.7613 44.1621 32.3286L32.3287 44.162C30.7614 45.7293 30.7614 48.2705 32.3287 49.8378L44.1621 61.6712C45.7294 63.2385 48.2706 63.2385 49.8379 61.6712L61.6713 49.8378C63.2386 48.2705 63.2386 45.7293 61.6713 44.162L49.8379 32.3286Z" fill="#D6B635"/>
<path d="M44.1504 44.1507C45.7177 42.5833 48.2823 42.5833 49.8496 44.1507C51.4169 45.718 51.4169 48.2826 49.8496 49.8499C48.2823 51.4172 45.7177 51.4172 44.1504 49.8499C42.5831 48.2826 42.5831 45.718 44.1504 44.1507Z" fill="#D6B635"/>
<path fill-rule="evenodd" clip-rule="evenodd" d="M69.6531 46.2906L61.2733 37.9108C60.8815 37.519 60.2462 37.519 59.8544 37.9108L51.4746 46.2906C51.0827 46.6824 51.0827 47.3177 51.4746 47.7096L59.8544 56.0893C60.2462 56.4812 60.8815 56.4812 61.2733 56.0894L69.6531 47.7096C70.0449 47.3177 70.0449 46.6824 69.6531 46.2906ZM63.4017 35.7824C61.8344 34.2151 59.2933 34.2151 57.7259 35.7824L49.3461 44.1622C47.7788 45.7295 47.7788 48.2706 49.3461 49.838L57.7259 58.2178C59.2933 59.7851 61.8344 59.7851 63.4017 58.2178L71.7815 49.838C73.3489 48.2707 73.3489 45.7295 71.7815 44.1622L63.4017 35.7824Z" fill="url(#paint0_linear_633_610)"/>
<path fill-rule="evenodd" clip-rule="evenodd" d="M41.6488 46.2906L33.269 37.9108C32.8772 37.519 32.2419 37.519 31.8501 37.9108L23.4703 46.2906C23.0785 46.6824 23.0785 47.3177 23.4703 47.7096L31.8501 56.0893C32.2419 56.4812 32.8772 56.4812 33.269 56.0894L41.6488 47.7096C42.0407 47.3177 42.0407 46.6824 41.6488 46.2906ZM35.3975 35.7824C33.8301 34.2151 31.289 34.2151 29.7217 35.7824L21.3419 44.1622C19.7745 45.7295 19.7745 48.2706 21.3419 49.838L29.7217 58.2178C31.289 59.7851 33.8301 59.7851 35.3975 58.2178L43.7773 49.838C45.3446 48.2707 45.3446 45.7295 43.7773 44.1622L35.3975 35.7824Z" fill="url(#paint1_linear_633_610)"/>
<path fill-rule="evenodd" clip-rule="evenodd" d="M90.3413 46.6453L47.3547 3.65866C47.1588 3.46274 46.8412 3.46274 46.6453 3.65866L3.65866 46.6453C3.46274 46.8412 3.46274 47.1588 3.65866 47.3547L46.6453 90.3413C46.8412 90.5373 47.1588 90.5373 47.3547 90.3413L90.3413 47.3547C90.5373 47.1588 90.5373 46.8412 90.3413 46.6453ZM49.8379 1.1755C48.2706 -0.391832 45.7294 -0.391832 44.1621 1.1755L1.1755 44.1621C-0.391831 45.7294 -0.391833 48.2706 1.1755 49.8379L44.1621 92.8245C45.7294 94.3918 48.2706 94.3918 49.8379 92.8245L92.8245 49.8379C94.3918 48.2706 94.3918 45.7294 92.8245 44.1621L49.8379 1.1755Z" fill="url(#paint2_linear_633_610)"/>
<path d="M148.188 23.625C164.188 23.5938 174.156 33.2812 174.156 48.875C174.156 64.3438 164.188 74 148.188 74H133.844V23.625H148.188ZM148.25 66.125C159.25 66.125 166.156 59.4688 166.156 48.8438C166.156 38.1562 159.219 31.4688 148.156 31.4688H141.719V66.125H148.25ZM211.406 31.4062H189.312V44.3125H208.375V52.1875H189.312V66.125H211.406V74H181.406V23.625H211.406V31.4062ZM243.375 74.8125C229.094 74.8125 217.25 63.0625 217.25 48.8438C217.25 34.6562 229.094 22.75 243.25 22.75C249.781 22.8438 255.812 25.625 260.75 30.4375L256.156 36.6562C252.625 33.125 248.031 30.7812 243.094 30.7812C233.969 30.7812 225.25 38.7812 225.25 48.875C225.25 59.0312 234.094 66.875 243.125 66.875C248.281 66.875 252.719 64.3125 256.188 60.875L260.75 67.25C256.406 71.5312 250.875 74.8125 243.375 74.8125ZM297.031 31.4062H274.938V44.3125H294V52.1875H274.938V66.125H297.031V74H267.031V23.625H297.031V31.4062ZM337.844 23.5H345.781V74.875H345.406L313.188 41.2188V74.0625H305.281V22.75H305.688L337.844 56.3438V23.5ZM387.031 23.625V31.4688H373.531V74H365.594V31.4688H352.094V23.625H387.031ZM430.75 74H421.031L407.469 54.5H401.281V74H393.375L393.344 23.625H409C418.375 23.625 426.062 30.8438 426.062 39.8125C426.062 46.3125 421.875 51.9688 416.094 53.8438L430.75 74ZM401.25 47.9375H409.188C413.938 47.9688 417.906 44.125 417.906 39.625C417.906 34.9375 413.875 31.4688 409.188 31.4688H401.25V47.9375ZM471.25 74L467.812 66.3438H443.969L440.531 74H431.969L455.656 22.5938H456.125L479.812 74H471.25ZM447.031 59.5625H464.75L455.906 39.875L447.031 59.5625ZM493.312 66.125H515.781V74H485.406V23.625H493.312V66.125ZM522.094 74V23.625H530V74H522.094ZM537.781 74L560.625 31.4688H537.781V23.625H573.219L550.406 66.125H573.219V74H537.781ZM610.969 31.4062H588.875V44.3125H607.938V52.1875H588.875V66.125H610.969V74H580.969V23.625H610.969V31.4062ZM633.562 23.625C649.562 23.5938 659.531 33.2812 659.531 48.875C659.531 64.3438 649.562 74 633.562 74H619.219V23.625H633.562ZM633.625 66.125C644.625 66.125 651.531 59.4688 651.531 48.8438C651.531 38.1562 644.594 31.4688 633.531 31.4688H627.094V66.125H633.625ZM733.156 46.5C733.281 47.6562 733.375 49.0312 733.375 50.4375C733.375 65.4062 722.5 74.8438 709.406 74.8438C694.75 74.8438 683.125 63.1562 683.125 48.875C683.125 34.5625 694.812 22.7812 709.125 22.7812C715.469 22.8125 722.719 25.875 727.469 30.5L723.062 37.0625C719.125 33.1875 713.812 30.75 709.031 30.75C699.844 30.75 691.156 38.4375 691.156 48.875C691.156 58.75 699 66.875 709.75 66.875C718.406 66.875 724.906 61.5938 724.906 53.9062V53.75H709.312V46.5H733.156ZM759.219 74.9375C748.5 74.9375 740.188 66.4688 740.188 54.9062V23.625H748.125V54.875C748.125 61.8438 753.031 66.9375 759.188 66.9375C765.344 66.9375 770.312 61.8438 770.312 54.875V23.625H778.281V54.9062C778.281 66.4688 769.938 74.9375 759.219 74.9375ZM817.938 74L814.5 66.3438H790.656L787.219 74H778.656L802.344 22.5938H802.812L826.5 74H817.938ZM793.719 59.5625H811.438L802.594 39.875L793.719 59.5625ZM869.5 74H859.781L846.219 54.5H840.031V74H832.125L832.094 23.625H847.75C857.125 23.625 864.812 30.8438 864.812 39.8125C864.812 46.3125 860.625 51.9688 854.844 53.8438L869.5 74ZM840 47.9375H847.938C852.688 47.9688 856.656 44.125 856.656 39.625C856.656 34.9375 852.625 31.4688 847.938 31.4688H840V47.9375ZM889.188 23.625C905.188 23.5938 915.156 33.2812 915.156 48.875C915.156 64.3438 905.188 74 889.188 74H874.844V23.625H889.188ZM889.25 66.125C900.25 66.125 907.156 59.4688 907.156 48.8438C907.156 38.1562 900.219 31.4688 889.156 31.4688H882.719V66.125H889.25ZM922.406 74V23.625H930.312V74H922.406ZM975.188 74L971.75 66.3438H947.906L944.469 74H935.906L959.594 22.5938H960.062L983.75 74H975.188ZM950.969 59.5625H968.688L959.844 39.875L950.969 59.5625ZM1021.91 23.5H1029.84V74.875H1029.47L997.25 41.2188V74.0625H989.344V22.75H989.75L1021.91 56.3438V23.5ZM1081.88 74.8125C1067.56 74.8125 1055.88 63.125 1055.88 48.875C1055.88 34.5 1067.56 22.75 1081.91 22.75C1096.22 22.75 1107.97 34.5 1107.97 48.875C1107.97 63.125 1096.22 74.8125 1081.88 74.8125ZM1081.88 66.8125C1091.81 66.8125 1099.97 58.7188 1099.97 48.8125C1099.97 38.8438 1091.81 30.7188 1081.88 30.7188C1071.94 30.7188 1063.84 38.8438 1063.84 48.8125C1063.84 58.7188 1071.94 66.8125 1081.88 66.8125ZM1145.22 31.375H1123.12V44.8438H1142.19V52.7188H1123.12V74.0625H1115.22V23.5H1145.22V31.375ZM1170.28 74V23.625H1178.19V74H1170.28ZM1220.47 23.5H1228.41V74.875H1228.03L1195.81 41.2188V74.0625H1187.91V22.75H1188.31L1220.47 56.3438V23.5ZM1269.66 23.625V31.4688H1256.16V74H1248.22V31.4688H1234.72V23.625H1269.66ZM1305.97 31.4062H1283.88V44.3125H1302.94V52.1875H1283.88V66.125H1305.97V74H1275.97V23.625H1305.97V31.4062ZM1361.84 46.5C1361.97 47.6562 1362.06 49.0312 1362.06 50.4375C1362.06 65.4062 1351.19 74.8438 1338.09 74.8438C1323.44 74.8438 1311.81 63.1562 1311.81 48.875C1311.81 34.5625 1323.5 22.7812 1337.81 22.7812C1344.16 22.8125 1351.41 25.875 1356.16 30.5L1351.75 37.0625C1347.81 33.1875 1342.5 30.75 1337.72 30.75C1328.53 30.75 1319.84 38.4375 1319.84 48.875C1319.84 58.75 1327.69 66.875 1338.44 66.875C1347.09 66.875 1353.59 61.5938 1353.59 53.9062V53.75H1338V46.5H1361.84ZM1406.75 74H1397.03L1383.47 54.5H1377.28V74H1369.38L1369.34 23.625H1385C1394.38 23.625 1402.06 30.8438 1402.06 39.8125C1402.06 46.3125 1397.88 51.9688 1392.09 53.8438L1406.75 74ZM1377.25 47.9375H1385.19C1389.94 47.9688 1393.91 44.125 1393.91 39.625C1393.91 34.9375 1389.88 31.4688 1385.19 31.4688H1377.25V47.9375ZM1412.09 74V23.625H1420V74H1412.09ZM1461.28 23.625V31.4688H1447.78V74H1439.84V31.4688H1426.34V23.625H1461.28ZM1480.19 74V52.4688L1463.47 23.625H1472.38L1484.09 43.6875L1495.84 23.625H1504.75L1488.03 52.4688V74H1480.19Z" fill="white"/>
<defs>
<linearGradient id="paint0_linear_633_610" x1="85.937" y1="8.06272" x2="29.4979" y2="64.5018" gradientUnits="userSpaceOnUse">
<stop stop-color="#D6B635"/>
<stop offset="1" stop-color="#FFE199" stop-opacity="0"/>
</linearGradient>
<linearGradient id="paint1_linear_633_610" x1="6.59677" y1="87.4029" x2="61.5699" y2="32.4298" gradientUnits="userSpaceOnUse">
<stop stop-color="#D8BB47"/>
<stop offset="1" stop-color="#FFE199" stop-opacity="0"/>
</linearGradient>
<linearGradient id="paint2_linear_633_610" x1="22.6687" y1="-1.66259" x2="22.6687" y2="90.8398" gradientUnits="userSpaceOnUse">
<stop stop-color="white"/>
<stop offset="1" stop-color="#8F8F8F" stop-opacity="0"/>
</linearGradient>
</defs>
</svg>
