<svg width="340" height="94" viewBox="0 0 340 94" fill="none" xmlns="http://www.w3.org/2000/svg">
<path d="M127.179 74L144.312 42.1016H127.179V36.2188H153.758L136.648 68.0938H153.758V74H127.179ZM186.687 74H179.445L165.476 55.7188V74H159.57V36.2188H165.476V54.3125L178.461 36.2188H185.351L171.945 54.7578L186.687 74ZM226.25 23.625H234.719L211.469 75.0312H210.937L187.781 23.625H196.187L211.187 57.7188L226.25 23.625ZM277.75 74H268.031L254.469 54.5H248.281V74H240.375L240.344 23.625H256C265.375 23.625 273.062 30.8438 273.062 39.8125C273.062 46.3125 268.875 51.9688 263.094 53.8438L277.75 74ZM248.25 47.9375H256.187C260.937 47.9688 264.906 44.125 264.906 39.625C264.906 34.9375 260.875 31.4688 256.187 31.4688H248.25V47.9375ZM283.094 74V23.625H299.937C309.687 23.625 317.656 31.0938 317.656 40.25C317.656 49.2188 309.687 56.5312 299.937 56.5312H291V74H283.094ZM299.937 48.7188C305.344 48.75 309.75 44.9062 309.75 40.1875C309.75 35.375 305.344 31.4688 299.937 31.4688H291V48.6875L299.937 48.7188Z" fill="white"/>
<path fill-rule="evenodd" clip-rule="evenodd" d="M69.1442 48.8076L8.13461 48.8076V44.6983L69.1442 44.6983V48.8076Z" fill="url(#paint0_linear_633_611)"/>
<path fill-rule="evenodd" clip-rule="evenodd" d="M75.2471 47L54.847 26.5999L34.4469 47L54.847 67.4001L75.2471 47ZM57.7527 23.6942C56.1479 22.0894 53.546 22.0894 51.9413 23.6942L31.5412 44.0943C29.9364 45.699 29.9364 48.3009 31.5412 49.9057L51.9413 70.3058C53.546 71.9106 56.1479 71.9105 57.7527 70.3058L78.1528 49.9057C79.7576 48.3009 79.7576 45.699 78.1528 44.0943L57.7527 23.6942Z" fill="url(#paint1_linear_633_611)"/>
<path fill-rule="evenodd" clip-rule="evenodd" d="M50.6242 47L36.5784 32.9542L22.5326 47L36.5784 61.0457L50.6242 47ZM39.4841 30.0485C37.8793 28.4437 35.2775 28.4437 33.6727 30.0485L19.6269 44.0942C18.0221 45.699 18.0221 48.3009 19.6269 49.9057L33.6727 63.9514C35.2775 65.5562 37.8793 65.5562 39.4841 63.9514L53.5299 49.9057C55.1347 48.3009 55.1347 45.699 53.5299 44.0942L39.4841 30.0485Z" fill="url(#paint2_linear_633_611)"/>
<path d="M71.8558 46.0962C71.8558 51.8367 67.2021 56.4904 61.4615 56.4904C55.721 56.4904 51.0673 51.8367 51.0673 46.0962C51.0673 40.3556 55.721 35.7019 61.4615 35.7019C67.2021 35.7019 71.8558 40.3556 71.8558 46.0962Z" fill="#D6B635"/>
<path fill-rule="evenodd" clip-rule="evenodd" d="M47 90.4044C70.9716 90.4044 90.4044 70.9716 90.4044 47C90.4044 23.0284 70.9716 3.59563 47 3.59563C23.0284 3.59563 3.59563 23.0284 3.59563 47C3.59563 70.9716 23.0284 90.4044 47 90.4044ZM47 94C72.9574 94 94 72.9574 94 47C94 21.0426 72.9574 0 47 0C21.0426 0 0 21.0426 0 47C0 72.9574 21.0426 94 47 94Z" fill="url(#paint3_linear_633_611)"/>
<defs>
<linearGradient id="paint0_linear_633_611" x1="94" y1="105.755" x2="13.1469" y2="105.755" gradientUnits="userSpaceOnUse">
<stop stop-color="#FFE199"/>
<stop offset="1" stop-color="#FFE199" stop-opacity="0"/>
</linearGradient>
<linearGradient id="paint1_linear_633_611" x1="-0.294776" y1="94.2945" x2="67.7743" y2="26.2254" gradientUnits="userSpaceOnUse">
<stop stop-color="#8F8F8F"/>
<stop offset="0.399879" stop-color="#8F8F8F" stop-opacity="0.607255"/>
<stop offset="1" stop-color="#8F8F8F" stop-opacity="0"/>
</linearGradient>
<linearGradient id="paint2_linear_633_611" x1="-0.000130717" y1="94.0001" x2="63.1096" y2="30.8904" gradientUnits="userSpaceOnUse">
<stop stop-color="#8F8F8F"/>
<stop offset="0.373049" stop-color="#8F8F8F" stop-opacity="0.72"/>
<stop offset="0.94" stop-color="#8F8F8F" stop-opacity="0"/>
<stop offset="1" stop-color="#8F8F8F" stop-opacity="0"/>
</linearGradient>
<linearGradient id="paint3_linear_633_611" x1="47" y1="0" x2="47" y2="145.067" gradientUnits="userSpaceOnUse">
<stop stop-color="white"/>
<stop offset="1" stop-opacity="0"/>
</linearGradient>
</defs>
</svg>
