<svg width="863" height="94" viewBox="0 0 863 94" fill="none" xmlns="http://www.w3.org/2000/svg">
<mask id="mask0_844_437" style="mask-type:alpha" maskUnits="userSpaceOnUse" x="1" y="3" width="93" height="87">
<path fill-rule="evenodd" clip-rule="evenodd" d="M47.9306 7.83681C24.8248 7.83681 6.09393 25.2729 6.09393 46.7814C6.09393 68.2898 24.8249 85.7259 47.9306 85.7259C71.0364 85.7259 89.7673 68.2898 89.7673 46.7814C89.7673 25.2729 71.0364 7.83681 47.9306 7.83681ZM47.9306 3.8967C22.4872 3.8967 1.86122 23.0968 1.86122 46.7814C1.86122 70.4659 22.4872 89.666 47.9306 89.666C73.374 89.666 94 70.4659 94 46.7814C94 23.0968 73.374 3.8967 47.9306 3.8967Z" fill="url(#paint0_linear_844_437)"/>
</mask>
<g mask="url(#mask0_844_437)">
<path d="M114.01 91.3984L49.3267 91.3984L49.3267 -9.5321L114.01 -9.5321L114.01 91.3984Z" fill="#D9D9D9"/>
</g>
<path fill-rule="evenodd" clip-rule="evenodd" d="M46.9995 62.6407C56.6641 62.6407 64.4988 55.3476 64.4988 46.3512C64.4988 37.3547 56.6641 30.0616 46.9995 30.0616C37.3349 30.0616 29.5002 37.3547 29.5002 46.3512C29.5002 55.3476 37.3349 62.6407 46.9995 62.6407ZM46.9995 67.1437C59.3357 67.1437 69.3362 57.8346 69.3362 46.3512C69.3362 34.8677 59.3357 25.5586 46.9995 25.5586C34.6633 25.5586 24.6628 34.8677 24.6628 46.3512C24.6628 57.8346 34.6633 67.1437 46.9995 67.1437Z" fill="url(#paint1_linear_844_437)"/>
<path d="M53.049 49.9039C53.049 50.7277 52.8371 51.504 52.4134 52.2327C52.0054 52.9456 51.3934 53.5396 50.5774 54.0149C49.7771 54.4743 48.8277 54.7436 47.7292 54.8228V56.7476H46.2227V54.7991C44.6534 54.6565 43.3902 54.1812 42.4329 53.3733C41.4757 52.5495 40.9813 51.4406 40.95 50.0465H44.4808C44.575 51.1871 45.1556 51.8762 46.2227 52.1139V47.5752C45.0928 47.29 44.1826 47.0048 43.4922 46.7197C42.8017 46.4345 42.2054 45.9751 41.7032 45.3414C41.201 44.7078 40.95 43.8444 40.95 42.7513C40.95 41.373 41.4364 40.2482 42.4094 39.3769C43.398 38.5056 44.6691 38.0066 46.2227 37.8799V35.9551H47.7292V37.8799C49.2357 38.0066 50.4362 38.466 51.3306 39.2581C52.2408 40.0502 52.7508 41.1433 52.8607 42.5374H49.3063C49.2592 42.078 49.0944 41.6819 48.812 41.3493C48.5452 41.0007 48.1843 40.7552 47.7292 40.6126V45.1038C48.9061 45.4048 49.832 45.6979 50.5068 45.983C51.1972 46.2523 51.7936 46.7038 52.2957 47.3375C52.7979 47.9554 53.049 48.8108 53.049 49.9039ZM44.3866 42.5849C44.3866 43.1077 44.5436 43.5355 44.8574 43.8681C45.1713 44.185 45.6264 44.4464 46.2227 44.6523V40.5413C45.6577 40.6205 45.2105 40.8344 44.881 41.1829C44.5514 41.5314 44.3866 41.9988 44.3866 42.5849ZM47.7292 52.1614C48.3255 52.0505 48.7884 51.805 49.118 51.4247C49.4632 51.0445 49.6358 50.5851 49.6358 50.0465C49.6358 49.5237 49.4711 49.1039 49.1415 48.7871C48.812 48.4702 48.3412 48.2088 47.7292 48.0029V52.1614Z" fill="#D6B635"/>
<path fill-rule="evenodd" clip-rule="evenodd" d="M46.0693 90.6227C47.4066 90.6227 48.4908 89.6135 48.4908 88.3686C48.4908 87.1237 47.4066 86.1145 46.0693 86.1145C44.7319 86.1145 43.6478 87.1237 43.6478 88.3686C43.6478 89.6135 44.7319 90.6227 46.0693 90.6227ZM46.0693 93.9999C49.4103 93.9999 52.1188 91.4787 52.1188 88.3686C52.1188 85.2585 49.4103 82.7373 46.0693 82.7373C42.7282 82.7373 40.0198 85.2585 40.0198 88.3686C40.0198 91.4787 42.7282 93.9999 46.0693 93.9999Z" fill="white"/>
<mask id="mask1_844_437" style="mask-type:alpha" maskUnits="userSpaceOnUse" x="0" y="3" width="93" height="87">
<path fill-rule="evenodd" clip-rule="evenodd" d="M46.0694 86.6365C69.7138 86.6365 88.8813 68.7939 88.8813 46.7841C88.8813 24.7742 69.7138 6.93166 46.0694 6.93166C22.425 6.93166 3.25743 24.7742 3.25743 46.7841C3.25743 68.7939 22.425 86.6365 46.0694 86.6365ZM46.0694 89.6687C71.5128 89.6687 92.1388 70.4686 92.1388 46.7841C92.1388 23.0995 71.5128 3.89941 46.0694 3.89941C20.626 3.89941 0 23.0995 0 46.7841C0 70.4686 20.626 89.6687 46.0694 89.6687Z" fill="url(#paint2_linear_844_437)"/>
</mask>
<g mask="url(#mask1_844_437)">
<path d="M-21.4065 2.16699H43.2768V103.098H-21.4065V2.16699Z" fill="#D9D9D9"/>
</g>
<path fill-rule="evenodd" clip-rule="evenodd" d="M46.9996 7.8854C48.3369 7.8854 49.421 6.87621 49.421 5.63132C49.421 4.38642 48.3369 3.37723 46.9996 3.37723C45.6622 3.37723 44.5781 4.38642 44.5781 5.63132C44.5781 6.87621 45.6622 7.8854 46.9996 7.8854ZM46.9996 11.2626C50.3406 11.2626 53.0491 8.74141 53.0491 5.63132C53.0491 2.52123 50.3406 0 46.9996 0C43.6585 0 40.95 2.52123 40.95 5.63132C40.95 8.74141 43.6585 11.2626 46.9996 11.2626Z" fill="white"/>
<path d="M170 73L166.562 65.3438H142.719L139.281 73H130.719L154.406 21.5938H154.875L178.562 73H170ZM145.781 58.5625H163.5L154.656 38.875L145.781 58.5625ZM206.812 44.625C212.469 44.625 218.844 49.8125 218.844 57.6562C218.844 65.375 213 73 203 73H184.156V22.625H197.906C206.594 22.625 212.469 28.875 212.469 35.5625C212.469 41 208.688 44.625 206.812 44.625ZM198.375 30.3125H192.031V42.875L198.281 42.8438C202.188 42.875 205.062 40.1875 205.062 36.5938C205.062 33 201.938 30.3125 198.375 30.3125ZM202.281 65.2812C206.812 65.2812 211.125 62 211.125 57.125C211.125 53.3125 207.875 49.8125 202.156 49.8125L192.031 49.8438V65.2812H202.281ZM239.688 73.8438C231.406 73.8438 225.125 69.9688 222.25 64.1562L228.5 59.6875C230.75 63.625 234.938 65.875 239.781 65.875C245.438 65.875 249.719 63.1562 249.719 59.3125C249.719 54.6562 243.094 51.8438 237.219 49.3125C231.312 46.6875 224.75 43.625 224.75 35.7188C224.75 27.4688 231.906 21.7188 240.969 21.7188C248.156 21.7188 253.531 25.1875 255.594 30.7188L249.719 34.7812C248.156 31.375 244.688 29.4688 241.031 29.4688C236.406 29.4688 232.719 32.3438 232.719 35.9062C232.719 39.8438 237.375 41.25 243.5 43.875C251.469 47.375 257.656 51.2188 257.656 59.1562C257.656 68.0938 249.906 73.8438 239.688 73.8438ZM296.031 22.625V30.4688H282.531V73H274.594V30.4688H261.094V22.625H296.031ZM339.75 73H330.031L316.469 53.5H310.281V73H302.375L302.344 22.625H318C327.375 22.625 335.062 29.8438 335.062 38.8125C335.062 45.3125 330.875 50.9688 325.094 52.8438L339.75 73ZM310.25 46.9375H318.188C322.938 46.9688 326.906 43.125 326.906 38.625C326.906 33.9375 322.875 30.4688 318.188 30.4688H310.25V46.9375ZM380.25 73L376.812 65.3438H352.969L349.531 73H340.969L364.656 21.5938H365.125L388.812 73H380.25ZM356.031 58.5625H373.75L364.906 38.875L356.031 58.5625ZM413.438 73.8125C399.156 73.8125 387.312 62.0625 387.312 47.8438C387.312 33.6562 399.156 21.75 413.312 21.75C419.844 21.8438 425.875 24.625 430.812 29.4375L426.219 35.6562C422.688 32.125 418.094 29.7812 413.156 29.7812C404.031 29.7812 395.312 37.7812 395.312 47.875C395.312 58.0312 404.156 65.875 413.188 65.875C418.344 65.875 422.781 63.3125 426.25 59.875L430.812 66.25C426.469 70.5312 420.938 73.8125 413.438 73.8125ZM468.656 22.625V30.4688H455.156V73H447.219V30.4688H433.719V22.625H468.656ZM474.969 73V22.625H482.875V73H474.969ZM516.188 73.8125C501.875 73.8125 490.188 62.125 490.188 47.875C490.188 33.5 501.875 21.75 516.219 21.75C530.531 21.75 542.281 33.5 542.281 47.875C542.281 62.125 530.531 73.8125 516.188 73.8125ZM516.188 65.8125C526.125 65.8125 534.281 57.7188 534.281 47.8125C534.281 37.8438 526.125 29.7188 516.188 29.7188C506.25 29.7188 498.156 37.8438 498.156 47.8125C498.156 57.7188 506.25 65.8125 516.188 65.8125ZM582.094 22.5H590.031V73.875H589.656L557.438 40.2188V73.0625H549.531V21.75H549.938L582.094 55.3438V22.5ZM630.375 73.4688L614.344 22.625H622.875L632.219 53.7188L643.75 24.75H644.062L655.594 53.6875L664.906 22.625H673.438L657.438 73.4688H656.719L643.812 43.0938L631.094 73.4688H630.375ZM705.562 73L702.125 65.3438H678.281L674.844 73H666.281L689.969 21.5938H690.438L714.125 73H705.562ZM681.344 58.5625H699.062L690.219 38.875L681.344 58.5625ZM727.625 65.125H750.094V73H719.719V22.625H727.625V65.125ZM764.312 65.125H786.781V73H756.406V22.625H764.312V65.125ZM823.094 30.4062H801V43.3125H820.062V51.1875H801V65.125H823.094V73H793.094V22.625H823.094V30.4062ZM862.906 22.625V30.4688H849.406V73H841.469V30.4688H827.969V22.625H862.906Z" fill="white"/>
<defs>
<linearGradient id="paint0_linear_844_437" x1="47.9306" y1="89.666" x2="47.9306" y2="3.8967" gradientUnits="userSpaceOnUse">
<stop stop-color="#C38B8B"/>
<stop offset="0.97" stop-color="white" stop-opacity="0"/>
</linearGradient>
<linearGradient id="paint1_linear_844_437" x1="46.9995" y1="25.5586" x2="45.1057" y2="75.9689" gradientUnits="userSpaceOnUse">
<stop stop-color="#D6B635"/>
<stop offset="0.28981" stop-color="#A38D40" stop-opacity="0.71019"/>
<stop offset="0.519901" stop-color="#7A6C49" stop-opacity="0.480099"/>
<stop offset="1" stop-opacity="0"/>
</linearGradient>
<linearGradient id="paint2_linear_844_437" x1="46.0694" y1="3.89941" x2="46.0694" y2="89.6687" gradientUnits="userSpaceOnUse">
<stop stop-color="white"/>
<stop offset="0.97" stop-color="white" stop-opacity="0"/>
</linearGradient>
</defs>
</svg>
