<svg width="1318" height="94" viewBox="0 0 1318 94" fill="none" xmlns="http://www.w3.org/2000/svg">
<path d="M137.75 66.125H160.219V74H129.844V23.625H137.75V66.125ZM188 74.8125C173.687 74.8125 162 63.125 162 48.875C162 34.5 173.687 22.75 188.031 22.75C202.344 22.75 214.094 34.5 214.094 48.875C214.094 63.125 202.344 74.8125 188 74.8125ZM188 66.8125C197.937 66.8125 206.094 58.7188 206.094 48.8125C206.094 38.8438 197.937 30.7188 188 30.7188C178.062 30.7188 169.969 38.8438 169.969 48.8125C169.969 58.7188 178.062 66.8125 188 66.8125ZM229.812 74.4688L213.781 23.625H222.312L231.656 54.7188L243.187 25.75H243.5L255.031 54.6875L264.344 23.625H272.875L256.875 74.4688H256.156L243.25 44.0938L230.531 74.4688H229.812ZM305.125 66.125H327.594V74H297.219V23.625H305.125V66.125ZM369.5 74L366.062 66.3438H342.219L338.781 74H330.219L353.906 22.5938H354.375L378.062 74H369.5ZM345.281 59.5625H363L354.156 39.875L345.281 59.5625ZM408.969 23.625V31.4688H395.469V74H387.531V31.4688H374.031V23.625H408.969ZM445.281 31.4062H423.187V44.3125H442.25V52.1875H423.187V66.125H445.281V74H415.281V23.625H445.281V31.4062ZM486.094 23.5H494.031V74.875H493.656L461.437 41.2188V74.0625H453.531V22.75H453.937L486.094 56.3438V23.5ZM527.437 74.8125C513.156 74.8125 501.312 63.0625 501.312 48.8438C501.312 34.6562 513.156 22.75 527.312 22.75C533.844 22.8438 539.875 25.625 544.812 30.4375L540.219 36.6562C536.687 33.125 532.094 30.7812 527.156 30.7812C518.031 30.7812 509.312 38.7812 509.312 48.875C509.312 59.0312 518.156 66.875 527.187 66.875C532.344 66.875 536.781 64.3125 540.25 60.875L544.812 67.25C540.469 71.5312 534.937 74.8125 527.437 74.8125ZM563.687 74V52.4688L546.969 23.625H555.875L567.594 43.6875L579.344 23.625H588.25L571.531 52.4688V74H563.687ZM591 75.4375C588.094 75.4375 585.687 73.0625 585.687 70.1562C585.687 67.25 588.094 64.8438 591 64.8438C593.875 64.8438 596.312 67.2812 596.312 70.1562C596.312 73.0625 593.906 75.4375 591 75.4375ZM653.219 23.625H661.125V74H653.219V52.7188H631.406V74H623.531V23.625H631.406V44.875H653.219V23.625ZM670.844 74V23.625H678.75V74H670.844ZM736.094 46.5C736.219 47.6562 736.312 49.0312 736.312 50.4375C736.312 65.4062 725.437 74.8438 712.344 74.8438C697.687 74.8438 686.062 63.1562 686.062 48.875C686.062 34.5625 697.75 22.7812 712.062 22.7812C718.406 22.8125 725.656 25.875 730.406 30.5L726 37.0625C722.062 33.1875 716.75 30.75 711.969 30.75C702.781 30.75 694.094 38.4375 694.094 48.875C694.094 58.75 701.937 66.875 712.687 66.875C721.344 66.875 727.844 61.5938 727.844 53.9062V53.75H712.25V46.5H736.094ZM773.281 23.625H781.187V74H773.281V52.7188H751.469V74H743.594V23.625H751.469V44.875H773.281V23.625ZM833.375 74.8125C819.094 74.8125 807.25 63.0625 807.25 48.8438C807.25 34.6562 819.094 22.75 833.25 22.75C839.781 22.8438 845.812 25.625 850.75 30.4375L846.156 36.6562C842.625 33.125 838.031 30.7812 833.094 30.7812C823.969 30.7812 815.25 38.7812 815.25 48.875C815.25 59.0312 824.094 66.875 833.125 66.875C838.281 66.875 842.719 64.3125 846.187 60.875L850.75 67.25C846.406 71.5312 840.875 74.8125 833.375 74.8125ZM878.437 74.8125C864.125 74.8125 852.437 63.125 852.437 48.875C852.437 34.5 864.125 22.75 878.469 22.75C892.781 22.75 904.531 34.5 904.531 48.875C904.531 63.125 892.781 74.8125 878.437 74.8125ZM878.437 66.8125C888.375 66.8125 896.531 58.7188 896.531 48.8125C896.531 38.8438 888.375 30.7188 878.437 30.7188C868.5 30.7188 860.406 38.8438 860.406 48.8125C860.406 58.7188 868.5 66.8125 878.437 66.8125ZM944.344 23.5H952.281V74.875H951.906L919.687 41.2188V74.0625H911.781V22.75H912.187L944.344 56.3438V23.5ZM985.687 74.8125C971.406 74.8125 959.562 63.0625 959.562 48.8438C959.562 34.6562 971.406 22.75 985.562 22.75C992.094 22.8438 998.125 25.625 1003.06 30.4375L998.469 36.6562C994.937 33.125 990.344 30.7812 985.406 30.7812C976.281 30.7812 967.562 38.7812 967.562 48.875C967.562 59.0312 976.406 66.875 985.437 66.875C990.594 66.875 995.031 64.3125 998.5 60.875L1003.06 67.25C998.719 71.5312 993.187 74.8125 985.687 74.8125ZM1027.91 74.9375C1017.19 74.9375 1008.87 66.4688 1008.87 54.9062V23.625H1016.81V54.875C1016.81 61.8438 1021.72 66.9375 1027.87 66.9375C1034.03 66.9375 1039 61.8438 1039 54.875V23.625H1046.97V54.9062C1046.97 66.4688 1038.62 74.9375 1027.91 74.9375ZM1093.56 74H1083.84L1070.28 54.5H1064.09V74H1056.19L1056.16 23.625H1071.81C1081.19 23.625 1088.87 30.8438 1088.87 39.8125C1088.87 46.3125 1084.69 51.9688 1078.91 53.8438L1093.56 74ZM1064.06 47.9375H1072C1076.75 47.9688 1080.72 44.125 1080.72 39.625C1080.72 34.9375 1076.69 31.4688 1072 31.4688H1064.06V47.9375ZM1136.31 74H1126.59L1113.03 54.5H1106.84V74H1098.94L1098.91 23.625H1114.56C1123.94 23.625 1131.62 30.8438 1131.62 39.8125C1131.62 46.3125 1127.44 51.9688 1121.66 53.8438L1136.31 74ZM1106.81 47.9375H1114.75C1119.5 47.9688 1123.47 44.125 1123.47 39.625C1123.47 34.9375 1119.44 31.4688 1114.75 31.4688H1106.81V47.9375ZM1171.66 31.4062H1149.56V44.3125H1168.62V52.1875H1149.56V66.125H1171.66V74H1141.66V23.625H1171.66V31.4062ZM1212.47 23.5H1220.41V74.875H1220.03L1187.81 41.2188V74.0625H1179.91V22.75H1180.31L1212.47 56.3438V23.5ZM1253.81 74.8125C1239.53 74.8125 1227.69 63.0625 1227.69 48.8438C1227.69 34.6562 1239.53 22.75 1253.69 22.75C1260.22 22.8438 1266.25 25.625 1271.19 30.4375L1266.59 36.6562C1263.06 33.125 1258.47 30.7812 1253.53 30.7812C1244.41 30.7812 1235.69 38.7812 1235.69 48.875C1235.69 59.0312 1244.53 66.875 1253.56 66.875C1258.72 66.875 1263.16 64.3125 1266.62 60.875L1271.19 67.25C1266.84 71.5312 1261.31 74.8125 1253.81 74.8125ZM1290.06 74V52.4688L1273.34 23.625H1282.25L1293.97 43.6875L1305.72 23.625H1314.62L1297.91 52.4688V74H1290.06Z" fill="white"/>
<path fill-rule="evenodd" clip-rule="evenodd" d="M69.1442 48.8076L8.13461 48.8076V44.6983L69.1442 44.6983V48.8076Z" fill="url(#paint0_linear_633_611)"/>
<path fill-rule="evenodd" clip-rule="evenodd" d="M75.2471 47L54.847 26.5999L34.4469 47L54.847 67.4001L75.2471 47ZM57.7527 23.6942C56.1479 22.0894 53.546 22.0894 51.9413 23.6942L31.5412 44.0943C29.9364 45.699 29.9364 48.3009 31.5412 49.9057L51.9413 70.3058C53.546 71.9106 56.1479 71.9105 57.7527 70.3058L78.1528 49.9057C79.7576 48.3009 79.7576 45.699 78.1528 44.0943L57.7527 23.6942Z" fill="url(#paint1_linear_633_611)"/>
<path fill-rule="evenodd" clip-rule="evenodd" d="M50.6242 47L36.5784 32.9542L22.5326 47L36.5784 61.0457L50.6242 47ZM39.4841 30.0485C37.8793 28.4437 35.2775 28.4437 33.6727 30.0485L19.6269 44.0942C18.0221 45.699 18.0221 48.3009 19.6269 49.9057L33.6727 63.9514C35.2775 65.5562 37.8793 65.5562 39.4841 63.9514L53.5299 49.9057C55.1347 48.3009 55.1347 45.699 53.5299 44.0942L39.4841 30.0485Z" fill="url(#paint2_linear_633_611)"/>
<path d="M71.8558 46.0962C71.8558 51.8367 67.2021 56.4904 61.4615 56.4904C55.721 56.4904 51.0673 51.8367 51.0673 46.0962C51.0673 40.3556 55.721 35.7019 61.4615 35.7019C67.2021 35.7019 71.8558 40.3556 71.8558 46.0962Z" fill="#D6B635"/>
<path fill-rule="evenodd" clip-rule="evenodd" d="M47 90.4044C70.9716 90.4044 90.4044 70.9716 90.4044 47C90.4044 23.0284 70.9716 3.59563 47 3.59563C23.0284 3.59563 3.59563 23.0284 3.59563 47C3.59563 70.9716 23.0284 90.4044 47 90.4044ZM47 94C72.9574 94 94 72.9574 94 47C94 21.0426 72.9574 0 47 0C21.0426 0 0 21.0426 0 47C0 72.9574 21.0426 94 47 94Z" fill="url(#paint3_linear_633_611)"/>
<defs>
<linearGradient id="paint0_linear_633_611" x1="94" y1="105.755" x2="13.1469" y2="105.755" gradientUnits="userSpaceOnUse">
<stop stop-color="#FFE199"/>
<stop offset="1" stop-color="#FFE199" stop-opacity="0"/>
</linearGradient>
<linearGradient id="paint1_linear_633_611" x1="-0.294776" y1="94.2945" x2="67.7743" y2="26.2254" gradientUnits="userSpaceOnUse">
<stop stop-color="#8F8F8F"/>
<stop offset="0.399879" stop-color="#8F8F8F" stop-opacity="0.607255"/>
<stop offset="1" stop-color="#8F8F8F" stop-opacity="0"/>
</linearGradient>
<linearGradient id="paint2_linear_633_611" x1="-0.000130717" y1="94.0001" x2="63.1096" y2="30.8904" gradientUnits="userSpaceOnUse">
<stop stop-color="#8F8F8F"/>
<stop offset="0.373049" stop-color="#8F8F8F" stop-opacity="0.72"/>
<stop offset="0.94" stop-color="#8F8F8F" stop-opacity="0"/>
<stop offset="1" stop-color="#8F8F8F" stop-opacity="0"/>
</linearGradient>
<linearGradient id="paint3_linear_633_611" x1="47" y1="0" x2="47" y2="145.067" gradientUnits="userSpaceOnUse">
<stop stop-color="white"/>
<stop offset="1" stop-opacity="0"/>
</linearGradient>
</defs>
</svg>
